<?xml version="1.0" encoding="utf-8"?>
<!-- Generator: Adobe Illustrator 25.4.1, SVG Export Plug-In . SVG Version: 6.00 Build 0)  -->
<svg version="1.1" id="图层_1" xmlns="http://www.w3.org/2000/svg" xmlns:xlink="http://www.w3.org/1999/xlink" x="0px" y="0px"
	 viewBox="0 0 148.72 54.86" style="enable-background:new 0 0 148.72 54.86;" xml:space="preserve">
<style type="text/css">
	.拱形绿色{fill:url(#SVGID_1_);stroke:#FFFFFF;stroke-width:0.25;stroke-miterlimit:1;}
	.st0{fill:#74AF27;}
	.st1{fill:#4B4846;}
</style>
<linearGradient id="SVGID_1_" gradientUnits="userSpaceOnUse" x1="-223.5924" y1="447.6673" x2="-222.8853" y2="446.9602">
	<stop  offset="0" style="stop-color:#1DA238"/>
	<stop  offset="0.9831" style="stop-color:#24391D"/>
</linearGradient>
<g>
	<g>
		<g>
			<path class="st0" d="M117.31,37.67c-0.05-0.03-0.08-0.05-0.02-0.03c1.58,0.33,2.86,1.18,3.73,2.56c0.94-1.46,0.42-3.67-3.15-4.32
				c-2.3-0.41-4.89,1.4-4.89,1.4s1.82,0.23,3.03,1.41c0.8,0.77,1.38,1.84,2.31,2.28c0.45,0.21,1.35,0.57,2.22-0.21
				C120.35,40.3,119.51,38.87,117.31,37.67z"/>
			<path class="st0" d="M126.51,33.04c-4.94,1.32-5.33,4.51-3.77,6.42c0.82-1.82,2.23-3.23,4.27-3.96c0.09-0.03,0.05,0.01-0.01,0.05
				c-2.1,1.37-3.46,4.4-3.51,4.61c1.26,0.93,2.38,0.3,2.98-0.04c1.23-0.7,1.91-2.24,2.92-3.4c1.55-1.76,4.03-2.29,4.03-2.29
				S129.63,32.21,126.51,33.04z"/>
		</g>
		<g>
			<path class="st1" d="M95.45,50.44c0-0.36,0.05-0.74,0.18-1.17c-1.22,1.71-2.81,3-4.82,3c-2.68,0-4.77-2.32-4.77-6.31
				c0-6.54,5.64-14.2,10.48-14.2c1.94,0,2.65,1.38,2.65,2.88c0,1.78-1.02,3.72-2.24,3.72c-0.28,0-0.59-0.15-0.79-0.58
				c0.72-0.51,1.99-2.52,1.99-3.9c0-0.76-0.41-1.35-1.53-1.35c-3.67,0-8.52,8.3-8.52,13.96c0,3.08,1.46,4.94,3.42,4.94
				c2.68,0,4.85-4.38,5.1-7.71c-1.25-0.28-1.96-0.33-2.63-0.33c-0.46,0-0.92,0.02-1.56,0.02c0.23-0.97,0.85-1.32,1.74-1.32
				c1.43,0,3.16,0.92,4.31,1.2l-0.18,0.81c-1.3,3.39-1.55,4.99-1.55,6.21c0,0.69,0.07,1.3,0.1,1.99
				C95.98,51.94,95.45,51.36,95.45,50.44z"/>
			<path class="st1" d="M99.38,46.83c0.46-0.89,1.33-2.67,2.07-4.84c-0.15-0.15-0.26-0.36-0.26-0.61c0-1.02,0.79-1.73,1.07-1.73
				c0.36,0,0.36,0.43,0.36,0.61c0,0.18-0.28,0.84-0.28,0.94c0,0.94,2.6,1.38,2.6,3.54c0,1.55-1.28,3.23-1.28,4.3
				c0,0.61,0.36,0.76,0.76,0.76c1.61,0,3.7-2.32,4.34-3.79l0.33,0.25c-0.97,2.16-3.16,4.45-5.33,4.45c-1.15,0-1.86-0.66-1.86-1.65
				c0-1.5,1.4-3.41,1.4-4.76c0-1.09-0.79-1.47-1.43-1.93c-0.79,2.01-1.73,3.97-2.27,4.89L99.38,46.83z"/>
			<path class="st1" d="M109.63,47.39c-0.08,0.33-0.1,0.66-0.1,0.92c0,1.04,0.43,2.14,2.01,2.14c1.81,0,3.67-1.43,5-3.31
				c0.61-2.8,3.34-5.88,5.99-5.88c0.79,0,1.58,0.3,1.58,1.55c0,2.6-3.06,4.3-5.97,4.58c-0.08,0.33-0.1,0.66-0.1,0.92
				c0,1.04,0.38,2.27,1.96,2.27c2.17,0,4.54-2.19,5.81-4.63l0.31,0.23c-1.38,3.06-4.13,5.14-6.66,5.14c-2.07,0-3.06-1.42-3.06-3.08
				V48.1c-1.45,1.94-3.47,3.08-5.41,3.08c-2.07,0-3.11-1.3-3.11-2.95c0-3.03,3.47-7.33,6.48-7.33c0.79,0,1.58,0.31,1.58,1.55
				C115.95,45.04,112.54,47.11,109.63,47.39z M109.75,46.9c1.81-0.64,5.08-2.45,5.08-4.63c0-0.38-0.1-0.58-0.53-0.58
				C112.66,41.68,110.45,44.49,109.75,46.9z M118.27,46.9c1.81-0.64,4.77-2.01,4.77-4.2c0-0.38-0.15-0.66-0.59-0.66
				C120.82,42.04,118.96,44.49,118.27,46.9z"/>
			<path class="st1" d="M126.15,43.62c0.2-0.23,0.69-0.53,1.17-0.53c0.46,0,0.69,0.26,0.69,0.66c0,0.53-0.36,1.96-0.82,3.36
				c1.35-2.06,3.37-4.48,5.31-4.48c1.32,0,1.89,1.14,1.89,2.29c0,1.58-1.05,2.78-1.05,4.02c0,0.72,0.33,0.97,0.77,0.97
				c1.27,0,2.63-2.09,3.57-3.97l0.28,0.33c-1.07,2.49-2.5,4.3-4.41,4.3c-1.2,0-1.79-0.69-1.79-1.63c0-1.04,0.74-2.34,0.74-3.54
				c0-0.94-0.43-1.25-1.02-1.25c-2.12,0-4.46,4.05-5.79,6.29c-0.54,0-1.07-0.18-1.35-0.56C124.34,49.58,126.13,45.83,126.15,43.62z"
				/>
		</g>
	</g>
	<g>
		<path class="st1" d="M47.19,22.16h2.45v0.07c0,1.17,0.33,2.15,1.01,2.92c0.68,0.77,1.51,1.16,2.51,1.16
			c0.95,0,1.74-0.29,2.36-0.89c0.63-0.59,0.95-1.33,0.95-2.24c0-0.9-0.25-1.62-0.75-2.16c-0.51-0.55-1.4-1.06-2.71-1.54
			c-2.07-0.74-3.42-1.5-4.06-2.28c-0.63-0.76-0.95-1.8-0.95-3.1c0-1.47,0.53-2.71,1.59-3.74c1.06-1.02,2.35-1.54,3.86-1.54
			c1.6,0,2.87,0.45,3.82,1.38c0.94,0.91,1.44,2.19,1.51,3.82H56.2c-0.06-0.9-0.34-1.58-0.84-2.09c-0.51-0.48-1.19-0.74-2.07-0.74
			c-0.78,0-1.43,0.27-1.95,0.8c-0.52,0.53-0.78,1.19-0.78,1.98c0,0.56,0.1,1.02,0.32,1.41c0.21,0.38,0.57,0.73,1.07,1.04
			c0.46,0.29,1.12,0.56,1.99,0.82c0.87,0.26,1.46,0.45,1.75,0.58c1.17,0.5,2.04,1.16,2.59,2c0.56,0.83,0.83,1.89,0.83,3.17
			c0,1.62-0.56,2.96-1.7,4.01c-1.12,1.06-2.55,1.59-4.29,1.59c-1.76,0-3.18-0.58-4.25-1.74C47.81,25.69,47.24,24.12,47.19,22.16z"/>
		<path class="st1" d="M112.32,28.58h-2.46V9.79h2.28v2.15c0.59-0.83,1.24-1.43,1.93-1.82c0.69-0.38,1.51-0.59,2.44-0.61l0.01,2.59
			c-1.5,0.14-2.58,0.59-3.22,1.36c-0.65,0.77-0.98,2.02-0.98,3.76V28.58z"/>
		<path class="st1" d="M104.49,9.12v3.3c-1.82-2.25-4.6-3.69-7.71-3.69c-5.48,0-9.92,4.44-9.92,9.92c0,5.48,4.44,9.92,9.92,9.92
			c3.11,0,5.89-1.44,7.71-3.69v3.69h2.2V9.12H104.49z M96.78,26.33c-4.24,0-7.68-3.44-7.68-7.67c0-4.24,3.44-7.68,7.68-7.68
			s7.67,3.44,7.67,7.68C104.45,22.9,101.01,26.33,96.78,26.33z"/>
		<path class="st1" d="M42.94,9.12v3.3c-1.82-2.25-4.6-3.69-7.72-3.69c-5.47,0-9.92,4.44-9.92,9.92c0,5.48,4.45,9.92,9.92,9.92
			c3.12,0,5.9-1.44,7.72-3.69v3.69h2.2V9.12H42.94z M35.22,26.33c-4.24,0-7.67-3.44-7.67-7.67c0-4.24,3.43-7.68,7.67-7.68
			c4.24,0,7.68,3.44,7.68,7.68C42.89,22.9,39.46,26.33,35.22,26.33z"/>
		<path class="st1" d="M13.64,8.74c-3.12,0-5.89,1.44-7.71,3.69V3.05H3.72v25.53h2.21v-3.69c1.82,2.25,4.6,3.69,7.71,3.69
			c5.48,0,9.92-4.44,9.92-9.92C23.56,13.18,19.12,8.74,13.64,8.74z M13.64,26.33c-4.24,0-7.68-3.44-7.68-7.67
			c0-4.24,3.44-7.68,7.68-7.68c4.24,0,7.67,3.44,7.67,7.68C21.32,22.9,17.89,26.33,13.64,26.33z"/>
		<path class="st1" d="M137.49,19.4c0.02-0.24,0.04-0.49,0.04-0.74c0-5.48-4.45-9.92-9.92-9.92c-5.48,0-9.92,4.44-9.92,9.92
			c0,5.48,4.44,9.92,9.92,9.92c4.3,0,7.96-2.75,9.33-6.59h-2.45c-1.25,2.57-3.85,4.34-6.88,4.34c-4,0-7.23-3.06-7.61-6.95
			L137.49,19.4z M127.6,10.98c3.74,0,6.83,2.66,7.53,6.2h-15.06C120.77,13.64,123.87,10.98,127.6,10.98z"/>
		<rect x="61.97" y="9.79" class="st1" width="2.41" height="18.8"/>
		<rect x="61.97" y="3.15" class="st1" width="2.41" height="2.55"/>
		<path class="st1" d="M76.24,26.99c-4.62,0-8.36-3.74-8.36-8.36c0-4.62,3.74-8.37,8.36-8.37c3.32,0,6.17,1.95,7.51,4.76l1.2-1.2
			c-1.7-3.08-4.96-5.15-8.71-5.15c-5.5,0-9.96,4.45-9.96,9.95c0,5.5,4.46,9.96,9.96,9.96c3.75,0,7.01-2.09,8.71-5.16l-1.19-1.2
			C82.41,25.04,79.56,26.99,76.24,26.99z"/>
		<path class="st1" d="M76.24,25.62c2.95,0,5.46-1.83,6.49-4.41l-0.91-0.91c-0.73,2.41-2.94,4.18-5.59,4.18
			c-3.23,0-5.86-2.62-5.86-5.86c0-3.23,2.62-5.86,5.86-5.86c2.65,0,4.86,1.77,5.59,4.19l0.91-0.91c-1.03-2.59-3.54-4.42-6.49-4.42
			c-3.86,0-6.99,3.13-6.99,6.99C69.24,22.49,72.37,25.62,76.24,25.62z"/>
		<g id="XMLID_1_">
			<g>
				<path class="st1" d="M141.22,3.05c0.71,0,1.41,0.18,2.08,0.55c0.68,0.36,1.21,0.88,1.58,1.56c0.38,0.68,0.57,1.39,0.57,2.12
					c0,0.73-0.19,1.43-0.56,2.1c-0.37,0.68-0.9,1.2-1.57,1.57c-0.67,0.37-1.38,0.56-2.11,0.56c-0.73,0-1.43-0.18-2.1-0.56
					c-0.67-0.37-1.2-0.89-1.57-1.57c-0.38-0.67-0.56-1.38-0.56-2.1c0-0.73,0.19-1.44,0.57-2.12c0.38-0.68,0.91-1.2,1.58-1.56
					C139.82,3.24,140.51,3.05,141.22,3.05z M141.22,3.76c-0.59,0-1.17,0.15-1.73,0.46c-0.56,0.31-1,0.74-1.32,1.31
					c-0.32,0.57-0.48,1.16-0.48,1.77c0,0.61,0.16,1.19,0.47,1.75c0.31,0.56,0.75,0.99,1.31,1.31c0.56,0.31,1.14,0.47,1.75,0.47
					c0.61,0,1.2-0.15,1.76-0.47c0.56-0.31,0.99-0.75,1.3-1.31c0.31-0.56,0.47-1.14,0.47-1.75c0-0.61-0.15-1.2-0.47-1.77
					c-0.31-0.56-0.76-1-1.32-1.31C142.39,3.91,141.82,3.76,141.22,3.76z M139.37,9.63V5.07h1.57c0.53,0,0.92,0.04,1.16,0.13
					c0.24,0.08,0.43,0.23,0.57,0.44c0.14,0.21,0.21,0.43,0.21,0.67c0,0.33-0.12,0.63-0.36,0.87c-0.24,0.25-0.55,0.38-0.94,0.42
					c0.16,0.07,0.29,0.15,0.39,0.24c0.18,0.18,0.4,0.48,0.67,0.9l0.56,0.89h-0.9l-0.4-0.72c-0.32-0.56-0.58-0.91-0.77-1.06
					c-0.14-0.11-0.33-0.16-0.59-0.16h-0.43v1.94H139.37z M140.1,7.06H141c0.42,0,0.71-0.06,0.87-0.19c0.15-0.13,0.23-0.3,0.23-0.51
					c0-0.13-0.04-0.26-0.11-0.36c-0.07-0.11-0.18-0.19-0.31-0.24c-0.13-0.05-0.38-0.08-0.74-0.08h-0.84V7.06z"/>
			</g>
		</g>
	</g>
</g>
</svg>
