<?xml version="1.0" encoding="utf-8"?>
<!-- Generator: Adobe Illustrator 25.4.1, SVG Export Plug-In . SVG Version: 6.00 Build 0)  -->
<svg version="1.1" id="Capa_1" xmlns="http://www.w3.org/2000/svg" xmlns:xlink="http://www.w3.org/1999/xlink" x="0px" y="0px"
	 viewBox="0 0 423.83 176.68" style="enable-background:new 0 0 423.83 176.68;" xml:space="preserve">
<style type="text/css">
	.st0{fill:#F08590;}
</style>
<g>
	<g>
		<path class="st0" d="M71,117.72c-5.1,0-8.13-4.85-10.05-7.92c-2.39-3.95-5.27-7.78-7.82-11.61c-2.71-4.08-13.87-21.82-18.5-24.24
			c-1.44-0.77-3.03-0.89-4.62-0.89c-1.76,0-3.51,0-5.27,0.12c-0.48,6.39-0.64,12.76-0.64,19.15c0,7.78,0.16,15.7,1.28,23.35
			l-0.8,0.64c-3.03,0-6.22,0.12-9.25,0.12c-0.96,0-1.91,0-2.71-0.51c-2.23-1.27-1.91-6.51-1.91-8.42V96.15
			c0-14.8,0.64-29.72,0.64-44.53c0-6.25-0.16-12.37-0.64-18.63c-0.16-1.66-0.32-3.44-0.32-5.1l0.96-0.9h5.26
			c4.31,0,8.61,0.13,13.08,0.13c4.62,0,9.25-0.13,13.87-0.13c16.59,0,23.93,5.36,23.93,18.76c0,11.23-5.74,19.27-17.7,25.13
			c3.19,4.72,6.38,9.45,9.41,14.17c4.3,6.76,9.73,13.27,14.67,19.77c2.39,3.06,4.62,6.13,7.18,9.06v1.02
			C78.66,116.05,73.88,117.72,71,117.72z M34.64,34.26c-3.2,0-6.54,0.26-9.73,0.51v31.13c1.27,0.26,2.55,0.26,3.83,0.26h6.22
			c12.12,0,18.02-8.55,18.02-17.36C52.98,39.37,46.28,34.26,34.64,34.26z"/>
		<path class="st0" d="M165.28,118.61c-33.33,0-44.65-23.48-44.65-46.57c0-23.99,13.87-47.85,47.69-47.85
			c33.17,0,44.97,22.72,44.97,45.94C213.28,95,200.52,118.61,165.28,118.61z M167.35,31.84c-7.66,0-14.99,2.16-19.93,7.01
			c-8.61,8.55-11.17,21.18-11.17,31.9c0,15.44,5.74,40.19,30.78,40.19c11.33,0,18.5-4.34,23.45-12.25
			c4.94-7.79,7.02-16.59,7.02-25.39C197.49,58,192.71,31.84,167.35,31.84z"/>
		<path class="st0" d="M281.72,118.48c-6.54,0-25.99-2.17-25.99-9.7c0-2.3,1.75-5.1,3.19-7.01c7.18,5.23,17.06,8.55,26.79,8.55
			c10.69,0,18.5-6.38,18.5-14.93c0-18.37-44.65-20.41-44.65-45.93c0-14.81,14.83-24.5,32.69-24.5c6.22,0,20.58,1.54,20.58,8.42
			c0,1.91-1.28,4.59-2.4,6.25c-6.85-3.7-12.91-6.5-21.37-6.5c-9.41,0-17.06,4.72-17.06,12.63c0,1.91,0.32,3.82,1.27,5.61
			c3.19,5.74,14.67,11.74,20.89,15.06c12.29,6.76,22.65,11.61,22.65,25.01C316.81,107.89,301.82,118.48,281.72,118.48z"/>
		<path class="st0" d="M411.87,116.43h-6.54c-8.13,0-16.27-0.12-24.4-0.12h-8.29c-7.01,0-7.82-0.9-7.82-6.38V99.21
			c0-7.02,0.32-14.16,0.32-21.18v-30.5c0-6.5-0.16-13.27-0.8-19.77l0.8-0.77c12.12,0,24.24-0.13,36.2-0.13
			c2.24,0,8.77-0.26,10.05,1.53c0.48,0.77,0.48,1.79,0.48,2.55c0,1.15-0.16,2.43-0.48,3.58l-0.64,0.51
			c-6.7-0.64-13.56-0.77-20.42-0.77h-5.89c-1.76,0-3.51,0.13-5.27,0.13c-0.16,2.81-0.32,5.61-0.32,8.42v22.2h13.4
			c4.31,0,8.46-0.13,12.6-0.64l0.32,0.38c-0.32,7.91-1.75,7.66-10.68,7.66c-5.27,0-10.52-0.26-15.79-0.26c0,0.9-0.16,1.79-0.16,2.68
			V97.8c0,3.58,0,7.15,0.48,10.72c5.43,0,10.84,0.38,16.27,0.38c7.18,0,15.47,0,22.49-1.27l0.64,0.51v0.51
			C418.42,112.36,417.61,116.43,411.87,116.43z M379.66,22.53c-0.96,0-3.19-1.15-3.19-1.92c0-0.51,1.27-1.14,1.59-1.41l19.45-12.88
			c3.35-2.3,4.15-1.79,8.77-1.79c1.59,0,9.73-0.51,9.73,1.66C416.02,11.42,386.52,22.53,379.66,22.53z"/>
	</g>
	<g>
		<g>
			<g>
				<path class="st0" d="M217.46,166.25h-2.35v-20.54h2.52v7.33c1.08-1.33,2.43-2.01,4.08-2.01c0.92,0,1.78,0.19,2.61,0.54
					c0.81,0.37,1.49,0.91,2.01,1.57c0.52,0.68,0.94,1.47,1.24,2.41c0.3,0.95,0.44,1.96,0.44,3.03c0,2.54-0.62,4.51-1.88,5.9
					c-1.26,1.4-2.77,2.09-4.54,2.09c-1.76,0-3.13-0.74-4.13-2.2V166.25z M217.42,158.71c0,1.78,0.23,3.06,0.73,3.87
					c0.8,1.29,1.86,1.94,3.21,1.94c1.12,0,2.07-0.48,2.88-1.43c0.79-0.97,1.2-2.39,1.2-4.28c0-1.95-0.38-3.37-1.15-4.3
					c-0.78-0.93-1.71-1.37-2.81-1.37c-1.09,0-2.07,0.45-2.85,1.43C217.83,155.5,217.42,156.89,217.42,158.71z"/>
				<path class="st0" d="M230.98,171.98l-0.28-2.35c0.56,0.15,1.03,0.23,1.44,0.23c0.57,0,1.01-0.1,1.34-0.28
					c0.35-0.19,0.62-0.46,0.83-0.78c0.15-0.25,0.41-0.89,0.77-1.9c0.04-0.13,0.12-0.33,0.23-0.6l-5.65-14.91h2.73l3.08,8.61
					c0.41,1.09,0.77,2.25,1.09,3.45c0.29-1.16,0.64-2.3,1.03-3.38l3.19-8.68h2.52l-5.65,15.13c-0.61,1.64-1.09,2.75-1.43,3.37
					c-0.44,0.84-0.95,1.45-1.53,1.82c-0.58,0.41-1.27,0.6-2.09,0.6C232.11,172.3,231.57,172.2,230.98,171.98z"/>
			</g>
		</g>
		<g>
			<path class="st0" d="M307.29,159.3h2.99v0.08c0,1.42,0.41,2.61,1.23,3.55c0.82,0.93,1.83,1.39,3.05,1.39
				c1.15,0,2.1-0.33,2.87-1.08c0.78-0.71,1.15-1.62,1.15-2.73c0-1.08-0.3-1.95-0.91-2.61c-0.61-0.67-1.71-1.3-3.28-1.88
				c-2.53-0.89-4.17-1.82-4.95-2.76c-0.78-0.93-1.15-2.19-1.15-3.77c0-1.78,0.65-3.29,1.94-4.54c1.28-1.26,2.86-1.87,4.69-1.87
				c1.96,0,3.5,0.55,4.66,1.66c1.13,1.12,1.74,2.67,1.84,4.65h-3.15c-0.08-1.08-0.41-1.92-1.04-2.52c-0.62-0.6-1.44-0.91-2.5-0.91
				c-0.95,0-1.74,0.33-2.38,0.96c-0.64,0.65-0.96,1.46-0.96,2.42c0,0.67,0.13,1.23,0.38,1.71c0.27,0.46,0.71,0.87,1.32,1.24
				c0.55,0.36,1.36,0.69,2.42,1.01c1.06,0.31,1.76,0.54,2.13,0.7c1.42,0.6,2.47,1.42,3.15,2.42c0.68,1.02,1.01,2.31,1.01,3.86
				c0,1.97-0.68,3.6-2.07,4.88c-1.36,1.29-3.09,1.93-5.21,1.93c-2.15,0-3.86-0.71-5.17-2.09
				C308.04,163.58,307.36,161.67,307.29,159.3z"/>
			<path class="st0" d="M386.52,167.09h-3v-22.85h2.78v2.62c0.72-1.01,1.5-1.74,2.35-2.22c0.83-0.46,1.84-0.69,2.96-0.74l0.02,3.16
				c-1.83,0.17-3.13,0.72-3.92,1.66c-0.8,0.93-1.19,2.46-1.19,4.56V167.09z"/>
			<path class="st0" d="M377,143.43v4c-2.23-2.7-5.6-4.47-9.4-4.47c-6.66,0-12.06,5.4-12.06,12.06c0,6.67,5.4,12.07,12.06,12.07
				c3.8,0,7.17-1.74,9.4-4.47v4.47h2.67v-23.66H377z M367.6,164.36c-5.15,0-9.33-4.17-9.33-9.33c0-5.15,4.17-9.33,9.33-9.33
				c5.15,0,9.33,4.17,9.33,9.33C376.93,160.18,372.75,164.36,367.6,164.36z"/>
			<path class="st0" d="M302.12,143.43v4c-2.22-2.7-5.59-4.47-9.39-4.47c-6.66,0-12.06,5.4-12.06,12.06
				c0,6.67,5.4,12.07,12.06,12.07c3.8,0,7.17-1.74,9.39-4.47v4.47h2.68v-23.66H302.12z M292.73,164.36c-5.15,0-9.34-4.17-9.34-9.33
				c0-5.15,4.18-9.33,9.34-9.33c5.16,0,9.34,4.17,9.34,9.33C302.07,160.18,297.89,164.36,292.73,164.36z"/>
			<path class="st0" d="M266.49,142.96c-3.79,0-7.16,1.77-9.38,4.47v-11.37h-2.68v31.03h2.68v-4.47c2.22,2.74,5.6,4.47,9.38,4.47
				c6.67,0,12.07-5.39,12.07-12.07C278.55,148.37,273.16,142.96,266.49,142.96z M266.49,164.36c-5.16,0-9.34-4.17-9.34-9.33
				c0-5.15,4.18-9.33,9.34-9.33c5.16,0,9.33,4.17,9.33,9.33C275.82,160.18,271.65,164.36,266.49,164.36z"/>
			<path class="st0" d="M417.12,155.93c0.01-0.3,0.05-0.59,0.05-0.9c0-6.66-5.4-12.06-12.07-12.06c-6.66,0-12.06,5.4-12.06,12.06
				c0,6.67,5.4,12.07,12.06,12.07c5.23,0,9.68-3.33,11.35-7.99h-2.98c-1.53,3.11-4.69,5.26-8.37,5.26c-4.86,0-8.8-3.72-9.25-8.45
				L417.12,155.93z M405.1,145.69c4.54,0,8.32,3.25,9.16,7.54h-18.31C396.78,148.94,400.56,145.69,405.1,145.69z"/>
			<rect x="325.26" y="144.24" class="st0" width="2.94" height="22.85"/>
			<rect x="325.26" y="136.18" class="st0" width="2.94" height="3.11"/>
			<path class="st0" d="M342.63,165.16c-5.63,0-10.18-4.55-10.18-10.18c0-5.61,4.55-10.17,10.18-10.17c4.03,0,7.5,2.37,9.14,5.8
				l1.46-1.46c-2.07-3.74-6.03-6.27-10.59-6.27c-6.69,0-12.12,5.42-12.12,12.1c0,6.68,5.43,12.1,12.12,12.1
				c4.56,0,8.53-2.53,10.59-6.26l-1.45-1.47C350.13,162.78,346.66,165.16,342.63,165.16z"/>
			<path class="st0" d="M348.57,156.77c-0.78,2.58-3.14,4.47-5.97,4.47c-3.46,0-6.25-2.79-6.25-6.26c0-3.43,2.79-6.25,6.25-6.25
				c2.83,0,5.19,1.89,5.97,4.47l1.23-0.97c-1.11-2.91-3.88-4.99-7.19-4.99c-4.27,0-7.73,3.47-7.73,7.73c0,4.29,3.45,7.75,7.73,7.75
				c3.3,0,6.07-2.09,7.19-4.99L348.57,156.77z"/>
		</g>
	</g>
</g>
</svg>
