<?xml version="1.0" encoding="utf-8"?>
<!-- Generator: Adobe Illustrator 25.4.1, SVG Export Plug-In . SVG Version: 6.00 Build 0)  -->
<svg version="1.1" id="图层_1" xmlns="http://www.w3.org/2000/svg" xmlns:xlink="http://www.w3.org/1999/xlink" x="0px" y="0px"
	 viewBox="0 0 99.76 23.84" style="enable-background:new 0 0 99.76 23.84;" xml:space="preserve">
<style type="text/css">
	.拱形绿色{fill:url(#SVGID_1_);stroke:#FFFFFF;stroke-width:0.25;stroke-miterlimit:1;}
</style>
<linearGradient id="SVGID_1_" gradientUnits="userSpaceOnUse" x1="-210.6055" y1="516.291" x2="-209.8984" y2="515.5839">
	<stop  offset="0" style="stop-color:#1DA238"/>
	<stop  offset="0.9831" style="stop-color:#24391D"/>
</linearGradient>
<g>
	<g>
		<g>
			<path d="M2.4,11.74l1.98-2.9c0.44,0.54,0.91,0.96,1.41,1.25c0.5,0.29,1,0.44,1.5,0.44c0.22,0,0.4-0.04,0.53-0.12
				c0.13-0.08,0.2-0.19,0.2-0.32c0-0.2-0.29-0.42-0.86-0.65c-0.13-0.05-0.22-0.09-0.3-0.12C5.92,8.93,5.23,8.47,4.8,7.95
				C4.36,7.44,4.15,6.81,4.15,6.08c0-1.15,0.42-2.1,1.26-2.83c0.84-0.73,1.94-1.09,3.31-1.09c0.79,0,1.51,0.12,2.18,0.35
				c0.66,0.23,1.27,0.58,1.83,1.04l-1.55,2.72c-0.45-0.39-0.86-0.68-1.22-0.88C9.58,5.2,9.24,5.11,8.94,5.11
				c-0.19,0-0.34,0.04-0.45,0.13C8.37,5.33,8.32,5.45,8.32,5.59c0,0.25,0.33,0.51,1,0.79c0.18,0.08,0.31,0.14,0.42,0.18
				c0.86,0.39,1.47,0.82,1.83,1.3c0.36,0.48,0.54,1.09,0.54,1.82c0,1.16-0.45,2.13-1.35,2.9c-0.9,0.77-2.04,1.16-3.41,1.16
				c-0.87,0-1.72-0.17-2.56-0.51C3.95,12.9,3.15,12.4,2.4,11.74z"/>
			<path d="M12.53,13.49l2.05-11.07h4.07l-2.04,11.07H12.53z"/>
			<path d="M29.75,12.2c-0.77,0.53-1.54,0.93-2.32,1.19c-0.78,0.26-1.58,0.39-2.39,0.39c-1.66,0-3-0.48-4.02-1.44
				c-1.02-0.96-1.54-2.21-1.54-3.75c0-0.83,0.13-1.6,0.38-2.32c0.25-0.72,0.63-1.37,1.14-1.96c0.59-0.7,1.3-1.24,2.15-1.6
				c0.85-0.37,1.78-0.55,2.79-0.55c1.18,0,2.18,0.24,3.02,0.71c0.84,0.47,1.5,1.18,1.99,2.13l-3.59,1.33
				c-0.19-0.27-0.41-0.46-0.66-0.59c-0.25-0.13-0.54-0.19-0.87-0.19c-0.71,0-1.28,0.26-1.72,0.77c-0.44,0.52-0.67,1.18-0.67,2
				c0,0.68,0.2,1.23,0.6,1.64c0.4,0.42,0.93,0.62,1.6,0.62c0.09,0,0.18,0,0.28-0.01c0.1-0.01,0.19-0.02,0.29-0.03l0.2-1.08h-1.44
				l0.46-2.51h5.27L29.75,12.2z"/>
			<path d="M31.44,13.49l2.04-11.07h4.06l1.27,3.52c0.02,0.06,0.05,0.14,0.09,0.26c0.28,0.77,0.48,1.43,0.59,1.99l1.07-5.76h4.02
				l-2.05,11.07h-4.05l-2.05-5.72c-0.02,0.52-0.13,1.36-0.34,2.53l-0.02,0.09l-0.57,3.1H31.44z"/>
			<path d="M43.66,13.49l5.78-11.07h4.38l1.45,11.07h-3.94l-0.07-1.48h-2.66l-0.6,1.48H43.66z M49.68,9.4h1.42l-0.05-1.19
				c0-0.06-0.01-0.16-0.02-0.28c-0.02-0.49-0.04-0.89-0.04-1.19c0-0.2,0-0.36,0-0.47c0-0.11,0.01-0.21,0.01-0.31
				c-0.09,0.3-0.18,0.58-0.28,0.86c-0.1,0.27-0.19,0.52-0.27,0.74L49.68,9.4z"/>
			<path d="M57.16,13.49l1.42-7.72h-2.37l0.63-3.36h8.71l-0.62,3.36h-2.29l-1.43,7.72H57.16z"/>
			<path d="M66.8,2.41h4.06l-1,5.37c-0.1,0.54-0.16,0.91-0.19,1.09c-0.03,0.18-0.04,0.33-0.04,0.43c0,0.29,0.07,0.51,0.22,0.66
				c0.14,0.16,0.35,0.23,0.62,0.23c0.33,0,0.59-0.12,0.76-0.37c0.17-0.24,0.35-0.86,0.53-1.85l1.02-5.58h4.05L75.7,8.58
				c-0.16,0.8-0.33,1.46-0.51,1.97c-0.18,0.51-0.4,0.93-0.65,1.27c-0.47,0.63-1.06,1.12-1.78,1.46c-0.72,0.34-1.51,0.51-2.37,0.51
				c-1.5,0-2.67-0.36-3.52-1.08c-0.85-0.72-1.27-1.71-1.27-2.97c0-0.26,0.03-0.58,0.07-0.96c0.05-0.39,0.14-0.93,0.27-1.62
				L66.8,2.41z"/>
			<path d="M76.86,13.49L78.9,2.41h4.27c1.6,0,2.81,0.28,3.64,0.85c0.83,0.56,1.24,1.39,1.24,2.48c0,0.92-0.24,1.69-0.71,2.3
				c-0.48,0.61-1.15,1.01-2.02,1.19l1.6,4.26h-4.11l-1.2-4.02l-0.75,4.02H76.86z M81.99,7.32h0.29c0.61,0,1.06-0.1,1.35-0.3
				c0.29-0.2,0.43-0.51,0.43-0.93c0-0.32-0.11-0.56-0.34-0.71c-0.23-0.15-0.59-0.22-1.09-0.22h-0.23L81.99,7.32z"/>
			<path d="M88.54,13.49l2.04-11.07h7.59l-0.54,3h-3.61l-0.2,1.07h3.4l-0.51,2.81h-3.39l-0.22,1.19h3.93l-0.55,3H88.54z"/>
		</g>
	</g>
	<g>
		<g>
			<path d="M57.08,21.66h-0.44v-3.88h0.48v1.38c0.2-0.25,0.46-0.38,0.77-0.38c0.17,0,0.34,0.04,0.49,0.1
				c0.15,0.07,0.28,0.17,0.38,0.3c0.1,0.13,0.18,0.28,0.23,0.46c0.06,0.18,0.08,0.37,0.08,0.57c0,0.48-0.12,0.85-0.36,1.12
				c-0.24,0.26-0.52,0.4-0.86,0.4c-0.33,0-0.59-0.14-0.78-0.42V21.66z M57.07,20.23c0,0.34,0.04,0.58,0.14,0.73
				c0.15,0.24,0.35,0.37,0.61,0.37c0.21,0,0.39-0.09,0.54-0.27c0.15-0.18,0.23-0.45,0.23-0.81c0-0.37-0.07-0.64-0.22-0.81
				c-0.15-0.17-0.32-0.26-0.53-0.26c-0.21,0-0.39,0.09-0.54,0.27C57.15,19.62,57.07,19.88,57.07,20.23z"/>
			<path d="M59.63,22.74l-0.05-0.45c0.11,0.03,0.19,0.04,0.27,0.04c0.11,0,0.19-0.02,0.25-0.05c0.07-0.04,0.12-0.09,0.16-0.15
				c0.03-0.05,0.08-0.17,0.15-0.36c0.01-0.03,0.02-0.06,0.04-0.12l-1.07-2.82h0.51l0.58,1.63c0.08,0.2,0.15,0.42,0.2,0.65
				c0.06-0.22,0.12-0.43,0.2-0.64l0.6-1.64h0.48l-1.07,2.86c-0.12,0.31-0.21,0.52-0.27,0.64c-0.08,0.16-0.18,0.27-0.29,0.34
				c-0.11,0.08-0.24,0.11-0.39,0.11C59.85,22.8,59.74,22.78,59.63,22.74z"/>
		</g>
	</g>
	<g>
		<path d="M74.06,20.34h0.57v0.02c0,0.27,0.08,0.49,0.23,0.67c0.16,0.18,0.35,0.26,0.58,0.26c0.22,0,0.4-0.06,0.54-0.2
			c0.15-0.14,0.22-0.31,0.22-0.51c0-0.2-0.06-0.37-0.17-0.49c-0.12-0.13-0.32-0.25-0.62-0.36c-0.48-0.17-0.79-0.34-0.93-0.52
			c-0.15-0.18-0.22-0.41-0.22-0.71c0-0.34,0.12-0.62,0.37-0.86c0.24-0.24,0.54-0.35,0.89-0.35c0.37,0,0.66,0.1,0.88,0.31
			c0.22,0.21,0.33,0.5,0.35,0.88h-0.6c-0.02-0.2-0.08-0.36-0.2-0.48c-0.12-0.11-0.27-0.17-0.47-0.17c-0.18,0-0.33,0.06-0.45,0.18
			c-0.12,0.12-0.18,0.28-0.18,0.46c0,0.13,0.03,0.23,0.07,0.32c0.05,0.09,0.13,0.17,0.25,0.24c0.1,0.07,0.26,0.13,0.46,0.19
			c0.2,0.06,0.33,0.1,0.4,0.13c0.27,0.11,0.47,0.27,0.6,0.46c0.13,0.19,0.19,0.44,0.19,0.73c0,0.37-0.13,0.68-0.39,0.92
			c-0.26,0.25-0.58,0.37-0.99,0.37c-0.4,0-0.73-0.13-0.98-0.4C74.2,21.15,74.07,20.79,74.06,20.34z"/>
		<path d="M89.03,21.81h-0.57v-4.32h0.53v0.49c0.14-0.19,0.28-0.33,0.44-0.42c0.16-0.09,0.35-0.13,0.56-0.14l0,0.6
			c-0.35,0.03-0.59,0.13-0.74,0.31c-0.15,0.17-0.22,0.46-0.22,0.86V21.81z"/>
		<path d="M87.23,17.34v0.76c-0.42-0.51-1.06-0.85-1.78-0.85c-1.26,0-2.28,1.02-2.28,2.28c0,1.26,1.02,2.28,2.28,2.28
			c0.72,0,1.36-0.33,1.78-0.85v0.85h0.51v-4.47H87.23z M85.45,21.3c-0.97,0-1.76-0.79-1.76-1.76c0-0.97,0.79-1.76,1.76-1.76
			c0.97,0,1.76,0.79,1.76,1.76C87.22,20.51,86.43,21.3,85.45,21.3z"/>
		<path d="M73.08,17.34v0.76c-0.42-0.51-1.06-0.85-1.78-0.85c-1.26,0-2.28,1.02-2.28,2.28c0,1.26,1.02,2.28,2.28,2.28
			c0.72,0,1.36-0.33,1.78-0.85v0.85h0.51v-4.47H73.08z M71.3,21.3c-0.97,0-1.77-0.79-1.77-1.76c0-0.97,0.79-1.76,1.77-1.76
			c0.97,0,1.76,0.79,1.76,1.76C73.07,20.51,72.28,21.3,71.3,21.3z"/>
		<path d="M66.34,17.25c-0.72,0-1.35,0.33-1.77,0.85v-2.15h-0.51v5.87h0.51v-0.85c0.42,0.52,1.06,0.85,1.77,0.85
			c1.26,0,2.28-1.02,2.28-2.28C68.62,18.27,67.6,17.25,66.34,17.25z M66.34,21.3c-0.97,0-1.77-0.79-1.77-1.76
			c0-0.97,0.79-1.76,1.77-1.76c0.98,0,1.76,0.79,1.76,1.76C68.11,20.51,67.32,21.3,66.34,21.3z"/>
		<path d="M94.81,19.7c0-0.06,0.01-0.11,0.01-0.17c0-1.26-1.02-2.28-2.28-2.28c-1.26,0-2.28,1.02-2.28,2.28
			c0,1.26,1.02,2.28,2.28,2.28c0.99,0,1.83-0.63,2.14-1.51h-0.56c-0.29,0.59-0.89,1-1.58,1c-0.92,0-1.66-0.7-1.75-1.6L94.81,19.7z
			 M92.54,17.77c0.86,0,1.57,0.61,1.73,1.43h-3.46C90.97,18.38,91.68,17.77,92.54,17.77z"/>
		<rect x="77.45" y="17.49" width="0.56" height="4.32"/>
		<rect x="77.45" y="15.97" width="0.56" height="0.59"/>
		<path d="M80.73,21.45c-1.06,0-1.92-0.86-1.92-1.92c0-1.06,0.86-1.92,1.92-1.92c0.76,0,1.42,0.45,1.73,1.1l0.27-0.27
			c-0.39-0.71-1.14-1.19-2-1.19c-1.26,0-2.29,1.03-2.29,2.29c0,1.26,1.03,2.29,2.29,2.29c0.86,0,1.61-0.48,2-1.18l-0.27-0.28
			C82.15,21,81.5,21.45,80.73,21.45z"/>
		<path d="M81.86,19.86c-0.15,0.49-0.59,0.85-1.13,0.85c-0.65,0-1.18-0.53-1.18-1.18c0-0.65,0.53-1.18,1.18-1.18
			c0.53,0,0.98,0.36,1.13,0.84l0.23-0.18c-0.21-0.55-0.73-0.94-1.36-0.94c-0.81,0-1.46,0.66-1.46,1.46c0,0.81,0.65,1.46,1.46,1.46
			c0.62,0,1.15-0.39,1.36-0.94L81.86,19.86z"/>
	</g>
</g>
</svg>
