<?xml version="1.0" encoding="utf-8"?>
<!-- Generator: Adobe Illustrator 25.4.1, SVG Export Plug-In . SVG Version: 6.00 Build 0)  -->
<svg version="1.1" id="Capa_1" xmlns="http://www.w3.org/2000/svg" xmlns:xlink="http://www.w3.org/1999/xlink" x="0px" y="0px"
	 viewBox="0 0 491.23 295.15" style="enable-background:new 0 0 491.23 295.15;" xml:space="preserve">
<style type="text/css">
	.st0{fill:#E9AF75;}
	.st1{fill:#E6A974;}
</style>
<g>
	<g>
		<path class="st0" d="M20.63,185.87l-0.87-2.6c50.44-16.81,138.69-28.1,224.81-28.77c87.99-0.68,176.25,9.97,224.86,27.15
			l-0.92,2.59c-48.33-17.08-136.25-27.71-223.92-26.99C158.74,157.9,70.82,169.14,20.63,185.87z"/>
		<g>
			<path class="st1" d="M45.71,112.99l-2.69,4.96l8.22,28.54l4.35,2.27l-12.78,3.68l2.93-4.36l-5.39-18.71l-1.83,26.77l-2.67,0.77
				l-0.44-0.69l2.42-0.7l1.84-28.52l-1.22-4.25l-2.12,31.52l-1.94,0.56l-14.08-20.23l4.24,14.7c0.57,1.96,1.1,3.32,1.59,4.06
				c0.49,0.74,1.36,1.46,2.61,2.17l3.41,2.45l-14.53,4.19l-0.72-0.61l13.65-3.93l-1.47-1.23l-12.39,3.57l0.5-0.47
				c1.73-1.72,2.76-3.26,3.08-4.61c0.32-1.35,0.13-3.27-0.59-5.77l-6.62-22.98l-4.66-2.39l14.37-4.14l-2.98,4.8l14.57,20.99l0.3-2.7
				l-13.05-18.57l2.86-3.75l0.72,0.31l-2.77,3.45l12.2,17.47l1.46-21.88l-4.44-2.66L45.71,112.99z M16.15,128.64l5.75,19.96
				c0.88,3.06,1.78,5.07,2.69,6.05c0.91,0.98,2.36,1.47,4.35,1.46l-0.37-0.35c-2.18-0.74-3.61-2.29-4.29-4.66l-0.59-2.06
				l-4.73-16.42L16.15,128.64z M47.89,114.71l-2.49,3.16l8.07,28.01l6.42,4.11l-14.76,4.25l-0.61-0.64l13.45-3.87l-5.12-3.25
				l-8.32-28.88l2.63-3.19L47.89,114.71z"/>
			<path class="st1" d="M83.62,105.83l-0.35,0.63c-1.49,2.73-2.52,5.73-3.09,9.02c-0.27-0.4-0.47-0.7-0.61-0.89
				c-1.47-2.08-2.86-3.34-4.17-3.78c-1.32-0.44-3.52-0.37-6.61,0.2c-1.42,0.27-3.12,0.63-5.09,1.1l2.43,13.08l1.82-0.34l-2.15-11.57
				c1.42-0.4,2.78-0.72,4.09-0.97c2.41-0.45,4.23-0.52,5.46-0.22c1.23,0.3,2.43,1.11,3.6,2.42c-0.3-0.14-0.52-0.25-0.65-0.32
				c-1.76-0.93-3-1.44-3.73-1.54c-0.72-0.1-2.09,0.04-4.1,0.41c-0.61,0.12-1.68,0.35-3.22,0.72l-0.59,0.14l2.01,10.81l5.23-0.97
				l2.73-5.71l2.28,12.26l-4.55-4.07l-7.76,1.44l2.97,15.95l1.82-0.34l-2.72-14.62l6.17-1.15l0.88,0.6l-6.2,1.15l2.58,13.87
				c3.87-0.72,6.56-1.5,8.09-2.36c1.53-0.85,2.61-2.17,3.24-3.96l1.03-2.87c0.03-0.13,0.11-0.36,0.22-0.69
				c0.88,2,1.8,3.55,2.76,4.66c0.96,1.11,2.44,2.35,4.44,3.7l-31.87,5.93l3.71-4.1l-2.36-12.68c-1.56,0.48-2.91,1.25-4.05,2.28
				l-0.51-0.52c1-1.05,2.47-1.88,4.42-2.5l-0.25-1.34c-0.33,0.02-0.56,0.05-0.69,0.07c-1.93,0.36-3.56,1.4-4.89,3.11
				c0.31-3.19,2.02-5.08,5.12-5.66l-2.26-12.14l-4.96-2.61L83.62,105.83z M95.14,141.19l-1,2.84l-31.05,5.78l-0.6-0.68l31.13-5.79
				l0.63-1.97c-3.2-2.01-5.62-4.35-7.27-7l0.97,0.17c1.49,2.23,3.71,4.33,6.64,6.3L95.14,141.19z M78.76,118.59l2.34,12.57
				l-0.78-0.24l-2.34-12.57L78.76,118.59z M85.36,107.57l-0.15,0.29c-1.73,3.54-2.79,6.43-3.18,8.68l-0.59-0.51
				c0.72-3.18,1.86-6.17,3.42-8.99L85.36,107.57z"/>
			<path class="st1" d="M123.43,100.5c-2.04,1.41-3.31,2.62-3.82,3.64c-0.77,1.58-0.97,3.83-0.59,6.75l0.24,1.87l3.25,25.27
				l-4.85,0.62l-16.92-24.53l2,15.58l0.14,1.29l0.87,4.09c0.63,1.86,1.68,3.17,3.16,3.91l0.26,0.17c-2.75-0.54-4.43-3.19-5.05-7.95
				l-0.32-2.7l-2.02-15.69L97.85,110l2.12,16.52c0.67,5.24,1.46,8.63,2.36,10.17c0.9,1.54,2.67,2.51,5.3,2.93l2.84,2.35l-15.55,2
				l-0.56-0.71l14.37-1.85l-1.7-1.38l-13.37,1.72c2.22-1.14,3.63-2.47,4.21-3.98c0.58-1.51,0.65-3.99,0.21-7.43l-2.95-22.95
				l-4.22-2.69l14.52-1.87l-3.72,3.25l17.36,25.3l-0.44-3.44l-14.88-21.65l3.67-3.24l0.61,0.48l-3.25,2.87l13.65,20l-1.72-13.39
				l-0.2-1.52c-0.43-3.33-0.99-5.52-1.67-6.56c-0.69-1.05-2.17-1.95-4.45-2.71L123.43,100.5z M124.71,102.49l-0.41,0.93
				c-1.43,0.53-2.35,1.3-2.75,2.29c-0.41,1-0.47,2.59-0.19,4.79l3.8,29.57l-6.17,0.79l-0.47-0.73l5.77-0.74l-3.66-28.51
				c-0.35-2.7-0.24-4.62,0.32-5.77C121.51,103.97,122.76,103.09,124.71,102.49z"/>
			<path class="st1" d="M134.48,99.3c0.71,1.29,1.13,2.57,1.25,3.86c0.47,4.78-2.04,8.37-7.54,10.77l-0.27-0.41l0.27-0.26
				c1.81-1.86,2.6-3.95,2.38-6.25c-0.16-1.63-0.81-3-1.95-4.11c0.22-0.12,0.4-0.2,0.53-0.25
				C131.22,101.64,132.99,100.53,134.48,99.3z M137.42,99.88c0.44,1.14,0.71,2.19,0.8,3.15c0.54,5.43-2.25,9.67-8.36,12.71
				l-0.45-0.74l0.47-0.22c3.11-1.63,5.2-3.43,6.26-5.41c1.08-2.04,1.52-4.06,1.32-6.06c-0.1-1-0.4-2.25-0.89-3.75L137.42,99.88z"/>
			<path class="st1" d="M167.66,97.16c-0.9,1.42-1.59,2.88-2.08,4.39c-0.96,2.97-1.61,4.8-1.94,5.48l-0.13,0.18
				c-0.09-0.21-0.16-0.36-0.21-0.48c-0.67-1.69-1.2-2.86-1.59-3.51c-0.4-0.65-0.96-1.25-1.7-1.82c-1.87-1.43-3.91-2.06-6.14-1.89
				c-2.06,0.15-3.73,0.85-5.01,2.1s-1.86,2.73-1.73,4.46c0.24,3.23,2.84,5.25,7.79,6.06l4.96,0.82c7.07,1.16,10.81,4.56,11.23,10.21
				c0.23,3.15-0.76,5.89-2.97,8.21c-2.22,2.32-5.07,3.61-8.57,3.87c-2.19,0.16-4.67,0.01-7.43-0.46l-3.44-0.58
				c-1.39-0.22-2.53-0.31-3.41-0.24c-1.17,0.09-2.36,0.55-3.55,1.4l-0.26-0.39c2.12-3.77,3.53-7.32,4.25-10.64l0.53,0.11
				c0.63,2.99,2.01,5.24,4.16,6.77c2.14,1.52,4.85,2.16,8.12,1.92c2.58-0.19,4.58-0.94,6.01-2.24c1.43-1.3,2.07-2.97,1.92-4.99
				c-0.17-2.33-1.37-4.17-3.6-5.53c-1.6-0.96-4.79-1.73-9.57-2.3c-3.69-0.44-6.41-1.43-8.17-2.96c-1.76-1.53-2.74-3.77-2.96-6.71
				c-0.23-3.04,0.68-5.58,2.72-7.64c2.04-2.06,4.81-3.21,8.31-3.48c2.25-0.17,4.9,0.04,7.96,0.63c1.43,0.28,2.49,0.39,3.16,0.35
				c0.94-0.07,1.95-0.47,3.01-1.21L167.66,97.16z M169.03,115.56c2.76,1.79,4.27,4.4,4.53,7.84c0.27,3.67-0.92,6.89-3.57,9.65
				c-2.66,2.76-6.02,4.29-10.1,4.6c-2.08,0.15-3.97,0.08-5.67-0.22l-4.7-0.78c-1.1-0.19-2.26-0.24-3.49-0.14
				c-1.1,0.08-2.09,0.38-2.98,0.89l-0.41-0.81c0.97-0.54,1.97-0.84,3.01-0.92c1.15-0.09,2.48-0.01,3.99,0.22l4.52,0.74
				c1.8,0.29,3.68,0.36,5.64,0.22c3.85-0.29,7.03-1.75,9.55-4.41c2.52-2.65,3.65-5.72,3.39-9.2c-0.22-2.94-1.45-5.44-3.69-7.5
				L169.03,115.56z M144.82,116.31l1.02,0.48c0.72,1.09,2.64,1.89,5.78,2.41l4.73,0.81c3.21,0.55,5.36,1.08,6.45,1.56
				c1.09,0.49,1.9,1.3,2.43,2.42l-0.19,0.13c-0.94-0.93-1.93-1.6-2.97-1.98c-1.04-0.39-3.02-0.81-5.94-1.27
				c-4.23-0.65-7.07-1.28-8.55-1.87C146.09,118.4,145.17,117.5,144.82,116.31z M149.12,125.39c0.97,3.41,3.05,5.72,6.26,6.93
				l0.02,0.23c-3.65-0.77-6-3.09-7.04-6.96L149.12,125.39z M161.55,104.6c-2.28-2.09-4.64-3.05-7.06-2.87
				c-1.46,0.11-2.64,0.62-3.54,1.54c-0.9,0.92-1.3,2.03-1.2,3.34c0.11,1.42,1.18,2.81,3.24,4.17l0.24,0.13l-0.13,0.24
				c-2.62-0.95-4.01-2.5-4.17-4.65c-0.11-1.5,0.34-2.76,1.34-3.78c1.01-1.02,2.38-1.6,4.11-1.73c1.65-0.12,3.13,0.12,4.42,0.73
				c1.29,0.61,2.27,1.53,2.95,2.75L161.55,104.6z M169.54,98.23l-0.23,0.45c-0.69,1.39-1.27,2.7-1.74,3.96
				c-1.14,2.93-1.78,4.56-1.93,4.9l-0.13,0.21l-0.71-0.24l0.1-0.27c0.46-1.31,1.15-3.02,2.05-5.14l1.68-3.95l0.13-0.24L169.54,98.23
				z"/>
			<path class="st1" d="M222.16,95.69l-5.11,10.79c-0.43-3.02-1.45-5.3-3.04-6.86c-1.6-1.56-3.67-2.3-6.21-2.23
				c-3.62,0.1-6.4,1.59-8.34,4.46c-1.94,2.87-2.83,6.84-2.69,11.91c0.31,11.16,5.03,16.61,14.17,16.36l4.65-0.13l-0.42-15l-7.29,0.2
				c-1.58,0.05-2.72-0.01-3.4-0.16c-0.69-0.16-1.36-0.51-2.01-1.07l-0.02-0.72c0.71,0.5,1.41,0.82,2.11,0.97
				c0.7,0.14,1.83,0.2,3.39,0.15l7.2-0.2l-0.04-1.56l-8.04,0.22l-1.3,0.04c-2.87,0.08-4.34-0.92-4.39-3
				c-0.02-0.81,0.2-1.51,0.66-2.1c0.47-0.59,1.04-0.9,1.71-0.92c0.5-0.01,0.94,0.16,1.33,0.51c0.39,0.36,0.59,0.78,0.6,1.29
				c0.02,0.85-0.27,1.35-0.89,1.5l-0.69,0.17c-0.23,0.06-0.34,0.16-0.34,0.3c0.01,0.25,0.33,0.37,0.96,0.35l0.98-0.03l19.08-0.53
				l-3.88,4.01l0.4,14.25l3.79,3.08l-14.77,0.41l-2.92,0.08c-2.45,0.07-4.48-0.17-6.1-0.73c-1.62-0.55-3.27-1.57-4.95-3.04
				c-3.97-3.44-6.04-8.14-6.21-14.09c-0.17-6.15,1.53-11,5.09-14.55c3.11-3.11,6.87-4.73,11.26-4.86c1.97-0.05,4.23,0.23,6.79,0.85
				c2.62,0.64,4.35,0.95,5.18,0.93C219.7,96.69,220.93,96.35,222.16,95.69z M214.82,102.12l-0.53-0.36
				c-2.24-1.5-4.27-2.23-6.08-2.17c-2.2,0.06-4.07,0.89-5.63,2.5c-1.12,1.19-1.92,2.73-2.37,4.61c-0.46,1.89-0.65,4.36-0.56,7.42
				c0.11,3.89,0.58,6.86,1.4,8.9c0.83,2.04,2.3,3.86,4.41,5.46l0.01,0.32c-2.27-1.27-3.94-3.1-4.98-5.49
				c-1.05-2.39-1.63-5.66-1.75-9.8c-0.13-4.57,0.63-8.14,2.28-10.72c1.65-2.58,4.02-3.92,7.12-4c2.7-0.07,4.93,0.98,6.69,3.17
				L214.82,102.12z M226.09,111.99l-2.89,3.06l0.38,13.56l4.95,5.39l-11.48,0.23l-10.4,0.4c-0.65,0.02-1.16,0.01-1.5-0.02
				c-1.22-0.1-2.46-0.6-3.72-1.49l0.61-0.02c1.33,0.54,3.13,0.78,5.4,0.72l1.44-0.07l18.01-0.5l-4.11-4.31l-0.39-14.17l3.23-3.45
				L226.09,111.99z M223.95,97.47l-4.67,9.85l-0.7-0.3l4.7-9.88L223.95,97.47z"/>
			<path class="st1" d="M232.13,98c4.58-2.62,9.5-3.92,14.77-3.9c4.09,0.02,7.45,0.92,10.1,2.7c2.64,1.78,3.96,4.05,3.95,6.78
				c-0.01,2.24-0.89,4.21-2.63,5.93c-1.74,1.72-4.12,2.96-7.13,3.72c1.31,3.67,3.11,7.24,5.38,10.72c2.27,3.48,4.55,6.15,6.84,8.01
				l-0.44,0.14c-2.88,0.97-5.7,2.35-8.46,4.13l-0.44,0.29l-0.14-0.93c-1.2-7.47-2.9-13.8-5.1-18.99l-0.12-0.29
				c-1.33,0.61-3.12,1.1-5.36,1.45l-0.23,0.03l-0.04,10.82l5.07,5.46l-14.95-0.06l-0.46-0.78l13.77,0.06l-4.17-4.47l0.05-11.66
				l0.61-0.08c2.2-0.22,4.04-0.65,5.53-1.28c-0.12-0.23-0.18-0.37-0.2-0.43l-0.29-0.84c-0.02-0.06-0.07-0.17-0.14-0.35
				c-1.2,0.34-3.45,0.71-6.77,1.1l-0.32,0.06l-0.05,12.9l3.28,3.46l-12.78-0.05l3.77-3.43l0.04-9.72l-0.23,0.03
				c-1.12,0.25-2.13,0.52-3.04,0.83l-0.23,0.09l-0.26-0.58c0.85-0.32,1.52-0.54,2-0.66l1.53-0.37l0.23-0.06l0.01-1.5
				c-1.14,0-2.56,0.24-4.25,0.74l-0.32,0.11c0.04-0.27,0.23-0.89,0.59-1.88c0.04-0.07,0.18-0.51,0.41-1.3
				c0.02-0.06,0.05-0.14,0.09-0.26c0.87,0.06,1.54,0.09,2.02,0.09c0.52,0,1-0.02,1.45-0.08l0.06-14.23c-0.89-0.54-1.8-1-2.74-1.37
				L232.13,98z M240.87,97.28l-0.06,15.59c0.56,0,1.09-0.05,1.59-0.14l0.06-14.23c1.06-0.28,2.33-0.42,3.82-0.42
				c3.76,0.02,6.31,1.26,7.65,3.73c-1.42-1.16-2.67-1.96-3.75-2.4c-1.08-0.44-2.37-0.66-3.87-0.67c-1.18-0.01-2.21,0.11-3.1,0.33
				l-0.06,13.65l0.32-0.06c3.8-0.68,6.63-1.76,8.47-3.25c1.85-1.49,2.78-3.43,2.79-5.82c0.01-2.14-0.81-3.91-2.46-5.32
				c-1.65-1.41-3.74-2.11-6.27-2.12C243.97,96.16,242.26,96.53,240.87,97.28z M254.77,114.69c1.2,3.98,3.33,7.87,6.4,11.68
				c1.92,2.38,4.35,4.52,7.29,6.42c-4.42,1.16-8.57,2.93-12.46,5.33l-0.26,0.17l-0.58-0.47c3.69-2.39,7.62-4.15,11.79-5.27
				c-5.54-3.72-9.88-9.66-13.03-17.81l-0.17-0.49c5.91-2.21,8.87-5.61,8.89-10.2c0.01-1.89-0.75-3.96-2.26-6.2
				c1.94,1.78,2.9,4.04,2.89,6.78C263.27,109.06,260.43,112.42,254.77,114.69z"/>
			<path class="st1" d="M285.53,94.91c4.68,0.16,8.36,2.06,11.05,5.7c2.68,3.64,3.92,8.43,3.72,14.37
				c-0.19,5.61-1.73,10.03-4.61,13.27c-2.88,3.24-6.65,4.78-11.31,4.62c-3.68-0.13-6.92-1.41-9.71-3.86
				c-4.1-3.61-6.04-8.82-5.8-15.62c0.2-5.82,1.8-10.39,4.81-13.72C276.68,96.33,280.63,94.74,285.53,94.91z M285.44,97.4
				c-6.51-0.22-9.96,5.39-10.36,16.84c-0.36,10.58,2.66,15.98,9.08,16.2c2.99,0.1,5.31-1.22,6.97-3.97
				c1.66-2.75,2.58-6.82,2.76-12.22c0.21-6.11-0.4-10.39-1.82-12.85C290.58,98.83,288.37,97.5,285.44,97.4z M294.7,96.7
				c2.71,1.42,4.81,3.77,6.3,7.05c1.49,3.27,2.16,7.02,2.02,11.24c-0.21,6.2-1.96,11.16-5.24,14.87c-3.28,3.71-7.48,5.47-12.61,5.3
				c-3.28-0.11-6.3-1.33-9.08-3.64l0-0.14c2.33,1.83,5.3,2.81,8.9,2.94c4.84,0.17,8.87-1.52,12.1-5.06
				c3.23-3.53,4.94-8.14,5.13-13.8c0.14-4.22-0.44-7.93-1.75-11.14c-1.31-3.21-3.24-5.64-5.78-7.29L294.7,96.7z M291.48,101.94
				l-0.48-0.31c-1.82-1.08-3.49-1.65-5.04-1.71c-5.07-0.17-7.77,4.72-8.11,14.68c-0.25,7.28,1.16,12.17,4.21,14.64l-0.27,0.28
				c-1.88-1.43-3.19-3.28-3.94-5.53c-0.74-2.25-1.05-5.28-0.92-9.08c0.37-10.7,3.36-15.94,8.99-15.75
				C288.49,99.27,290.34,100.19,291.48,101.94z"/>
			<path class="st1" d="M323.35,96.76c4.68,0.31,8.3,2.32,10.86,6.05c2.57,3.72,3.66,8.55,3.27,14.47
				c-0.37,5.6-2.04,9.97-5.02,13.12c-2.98,3.15-6.8,4.57-11.45,4.26c-3.68-0.24-6.87-1.63-9.58-4.17c-3.99-3.74-5.75-9.01-5.31-15.8
				c0.38-5.81,2.13-10.33,5.24-13.57C314.46,97.89,318.46,96.44,323.35,96.76z M323.18,99.24c-6.5-0.43-10.13,5.07-10.88,16.5
				c-0.69,10.56,2.16,16.05,8.57,16.47c2.98,0.2,5.34-1.05,7.09-3.75c1.74-2.7,2.79-6.74,3.15-12.13c0.4-6.1-0.07-10.4-1.41-12.9
				C328.28,100.83,326.11,99.43,323.18,99.24z M332.46,98.84c2.66,1.51,4.69,3.92,6.07,7.24c1.39,3.32,1.94,7.09,1.66,11.3
				c-0.41,6.2-2.31,11.09-5.71,14.7c-3.4,3.6-7.65,5.24-12.77,4.9c-3.27-0.22-6.26-1.52-8.96-3.92l0.01-0.14
				c2.27,1.91,5.2,2.98,8.8,3.22c4.83,0.32,8.91-1.24,12.25-4.67c3.34-3.43,5.19-7.98,5.56-13.63c0.28-4.21-0.19-7.94-1.39-11.19
				c-1.21-3.25-3.06-5.74-5.55-7.47L332.46,98.84z M329.08,103.98l-0.47-0.32c-1.78-1.14-3.44-1.76-4.98-1.86
				c-5.06-0.33-7.92,4.47-8.57,14.42c-0.48,7.27,0.77,12.2,3.75,14.77l-0.28,0.27c-1.83-1.49-3.09-3.38-3.76-5.65
				c-0.67-2.28-0.88-5.31-0.63-9.1c0.7-10.68,3.86-15.83,9.48-15.46C326.18,101.21,327.99,102.19,329.08,103.98z"/>
			<path class="st1" d="M383.96,102.62l-4.36,3.59l-3.1,29.54l3.19,3.74l-13.23-1.39l4.35-2.95l2.03-19.36l-11.75,24.13l-2.76-0.29
				l-0.15-0.8l2.5,0.26l12.41-25.75l0.46-4.4l-13.8,28.42l-2.01-0.21l-5.45-24.04l-1.59,15.22c-0.21,2.03-0.23,3.48-0.05,4.36
				c0.18,0.87,0.72,1.87,1.61,2.99l2.25,3.55l-15.04-1.58l-0.44-0.83l14.12,1.48l-0.9-1.7l-12.83-1.34l0.64-0.25
				c2.25-0.95,3.78-1.98,4.59-3.11c0.81-1.13,1.35-2.99,1.62-5.58l2.49-23.78l-3.42-3.97l14.87,1.56l-4.57,3.33l5.62,24.93l1.3-2.39
				l-5.13-22.11l4.06-2.4l0.55,0.55l-3.86,2.15l4.74,20.77l9.57-19.73l-3.11-4.14L383.96,102.62z M350.68,106.02l-2.17,20.65
				c-0.33,3.17-0.26,5.37,0.22,6.63c0.48,1.25,1.64,2.25,3.48,2.98l-0.21-0.46c-1.74-1.5-2.49-3.48-2.23-5.93l0.22-2.13l1.78-17
				L350.68,106.02z M385.34,105.03l-3.49,1.99l-3.04,28.99l4.41,6.22l-15.27-1.6l-0.32-0.82l13.92,1.46l-3.52-4.94l3.13-29.89
				l3.64-1.97L385.34,105.03z"/>
			<path class="st1" d="M389.32,103.45l13.57,1.92l-4.39,3.35l-4.21,29.81l3.18,3.55l-13.35-1.88l4.45-2.73l4.21-29.87
				L389.32,103.45z M403.95,107.18l-3.33,2.48l-4.12,29.18l4.05,6.06l-14.89-2.1l-0.61-0.88l13.92,1.97l-3.31-4.88l4.19-29.72
				l3.69-2.75L403.95,107.18z"/>
			<path class="st1" d="M440.82,111.89c-2.37,0.73-3.95,1.5-4.74,2.32c-1.21,1.27-2.08,3.36-2.6,6.26l-0.33,1.85l-4.53,25.07
				l-4.81-0.87l-8.72-28.5l-2.79,15.45l-0.26,1.28l-0.4,4.16c0.04,1.97,0.65,3.53,1.83,4.68l0.19,0.24
				c-2.46-1.35-3.26-4.38-2.41-9.11l0.51-2.67l2.81-15.57l-1-3.27l-2.96,16.39c-0.94,5.2-1.21,8.67-0.82,10.4
				c0.39,1.74,1.78,3.2,4.17,4.4l2,3.09l-15.43-2.79l-0.32-0.85l14.26,2.58l-1.2-1.83l-13.26-2.4c2.46-0.42,4.2-1.26,5.22-2.53
				c1.01-1.27,1.83-3.61,2.44-7.02l4.12-22.77l-3.21-3.84l14.4,2.6l-4.53,1.97l8.92,29.36l0.62-3.42l-7.65-25.13l4.47-1.98
				l0.44,0.64l-3.96,1.75l6.98,23.19l2.4-13.29l0.27-1.51c0.6-3.3,0.73-5.56,0.39-6.76c-0.34-1.21-1.48-2.51-3.42-3.92
				L440.82,111.89z M441.43,114.17l-0.67,0.76c-1.52,0.08-2.63,0.53-3.32,1.36c-0.69,0.82-1.23,2.33-1.62,4.51l-5.3,29.34
				l-6.12-1.11l-0.23-0.84l5.72,1.03l5.11-28.29c0.48-2.68,1.17-4.48,2.05-5.4C437.94,114.61,439.4,114.16,441.43,114.17z"/>
			<path class="st1" d="M477.05,122.01l-7.93,8.92c0.43-3.02,0.1-5.5-0.99-7.44c-1.1-1.94-2.87-3.23-5.33-3.88
				c-3.51-0.92-6.59-0.28-9.25,1.94c-2.66,2.21-4.64,5.77-5.92,10.67c-2.83,10.8,0.17,17.36,9.01,19.68l4.5,1.18l3.81-14.52
				l-7.05-1.85c-1.53-0.4-2.6-0.77-3.22-1.11c-0.62-0.34-1.16-0.87-1.63-1.59l0.18-0.7c0.54,0.68,1.12,1.19,1.75,1.52
				c0.63,0.33,1.7,0.7,3.21,1.1l6.97,1.83l0.4-1.51l-7.78-2.04l-1.26-0.33c-2.78-0.73-3.9-2.1-3.38-4.11
				c0.21-0.78,0.61-1.4,1.23-1.83c0.61-0.44,1.25-0.57,1.9-0.4c0.48,0.13,0.86,0.42,1.13,0.86c0.27,0.45,0.34,0.92,0.22,1.4
				c-0.22,0.82-0.64,1.22-1.27,1.19l-0.71-0.04c-0.24,0-0.37,0.06-0.41,0.19c-0.06,0.24,0.21,0.44,0.83,0.61L457,132l18.46,4.84
				l-4.85,2.76l-3.62,13.79l2.77,4.02l-14.29-3.75l-2.83-0.74c-2.37-0.62-4.25-1.42-5.65-2.41c-1.4-0.98-2.69-2.42-3.89-4.31
				c-2.85-4.42-3.52-9.5-2-15.27c1.56-5.95,4.55-10.13,8.97-12.54c3.86-2.12,7.92-2.62,12.17-1.5c1.9,0.5,4,1.41,6.28,2.72
				c2.34,1.35,3.91,2.13,4.71,2.34C474.41,122.28,475.68,122.29,477.05,122.01z M476.25,138.75l-3.64,2.13L469.17,154l3.24,6.56
				l-11.08-3l-10.1-2.53c-0.63-0.17-1.11-0.31-1.44-0.44c-1.14-0.44-2.19-1.26-3.15-2.47l0.59,0.16c1.12,0.89,2.78,1.63,4.98,2.2
				l1.41,0.34l17.43,4.57l-2.74-5.29l3.6-13.71l4.07-2.4L476.25,138.75z M468.2,126.12l-0.41-0.5c-1.73-2.07-3.47-3.33-5.22-3.79
				c-2.13-0.56-4.16-0.28-6.11,0.82c-1.41,0.82-2.6,2.08-3.57,3.76c-0.97,1.68-1.84,4-2.62,6.97c-0.99,3.77-1.37,6.75-1.15,8.94
				s1.12,4.35,2.7,6.48l-0.08,0.31c-1.83-1.86-2.91-4.08-3.24-6.67c-0.34-2.59,0.02-5.89,1.07-9.9c1.16-4.42,2.89-7.64,5.19-9.66
				s4.96-2.63,7.96-1.85c2.61,0.69,4.45,2.32,5.53,4.92L468.2,126.12z M478.27,124.22l-7.25,8.14l-0.59-0.48l7.29-8.16
				L478.27,124.22z"/>
		</g>
		<path class="st0" d="M8.53,105.41l-0.94-2.58c105.02-38.16,372.24-39.04,476.55-1.58l-0.93,2.58
			C379.31,66.52,113.14,67.41,8.53,105.41z"/>
		<polygon class="st0" points="36.48,186.82 100.05,170.63 100.67,173.3 		"/>
		<polygon class="st0" points="45.63,191.57 106.95,175.9 107.57,178.57 		"/>
		<polygon class="st0" points="65.94,193.8 113.57,181.31 114.19,183.98 		"/>
		<polygon class="st0" points="78.48,197.89 121.17,186.55 121.79,189.22 		"/>
		<polygon class="st0" points="93.11,201.23 127.54,191.82 128.16,194.49 		"/>
		<polygon class="st0" points="106.5,204.75 134.13,196.91 134.75,199.58 		"/>
		<polygon class="st0" points="117.9,209.31 141.92,202.32 142.54,204.99 		"/>
		<polygon class="st0" points="131.09,213.16 149.19,207.54 149.81,210.22 		"/>
		<polygon class="st0" points="145.05,216.72 156.12,212.74 156.74,215.41 		"/>
		<polygon class="st0" points="157.62,220.35 162.43,217.82 163.05,220.49 		"/>
		<polygon class="st0" points="455.45,186.49 391.26,172.97 391.88,170.3 		"/>
		<polygon class="st0" points="446.3,191.24 384.36,178.24 384.98,175.57 		"/>
		<polygon class="st0" points="425.99,193.47 377.74,183.65 378.36,180.98 		"/>
		<polygon class="st0" points="413.45,197.56 370.14,188.89 370.76,186.22 		"/>
		<polygon class="st0" points="398.82,200.9 363.77,194.16 364.39,191.48 		"/>
		<polygon class="st0" points="385.44,204.42 357.18,199.25 357.8,196.58 		"/>
		<polygon class="st0" points="374.03,208.98 349.39,204.66 350.01,201.99 		"/>
		<polygon class="st0" points="360.85,212.83 342.12,209.89 342.74,207.21 		"/>
		<polygon class="st0" points="346.88,216.39 335.19,215.08 335.81,212.41 		"/>
		<g>
			<polygon class="st0" points="334.31,220.02 329.08,219.32 329.31,218.34 			"/>
		</g>
		<polygon class="st0" points="245.36,282.68 244.52,281.88 93.26,168.46 94.9,166.26 245.47,279.17 396.74,165.73 398.38,167.92 		
			"/>
		<path class="st1" d="M196.83,235.27c4.43-0.35,8.05-3.98,13.65-4.15c5.6-0.17,6.3,4.03,7.93,4.15s0.47-1.6,1.28-1.5
			c0.82,0.1,3.97,1.51,7.35,1.51c3.38,0,8.28-2.22,10.62-5.14v-7.58v-7.58c-2.33-2.92-7.23-5.14-10.62-5.14
			c-3.38,0-6.53,1.41-7.35,1.51c-0.82,0.1,0.35-1.62-1.28-1.5s-2.33,4.32-7.93,4.15c-5.6-0.17-9.22-3.8-13.65-4.15V235.27z"/>
		<path class="st1" d="M239.51,229.51c0,0,19.6,7.82,21.24,8.52c1.63,0.7,16.45,0.7,16.45-15.64v0.15
			c0-16.34-14.82-16.34-16.45-15.64c-1.63,0.7-21.24,8.52-21.24,8.52V229.51z"/>
		<path class="st1" d="M277.05,197.12l-20.15-5.55l-2.06,3.64l20.75,5.18"/>
		<path class="st1" d="M275.33,180.86l-21.4,5.4l-50.45,3.53l50.45,5.34l3.66-5.72l19.02-5.28 M241.2,191.98
			c-0.93,0-1.69-0.76-1.69-1.69c0-0.93,0.76-1.69,1.69-1.69c0.93,0,1.69,0.76,1.69,1.69C242.89,191.22,242.14,191.98,241.2,191.98z"
			/>
		<path class="st1" d="M300.03,174.08c-2.14-6.19-9.46-9.28-16.35-6.89c-6.88,2.39-10.73,9.34-8.58,15.53
			c2.15,6.19,9.46,9.27,16.35,6.89C298.34,187.22,302.18,180.27,300.03,174.08z M290.42,187.53c-5.36,1.86-11.07-0.54-12.74-5.37
			c-1.67-4.82,1.32-10.24,6.69-12.1c5.36-1.86,11.07,0.54,12.74,5.37C298.78,180.25,295.79,185.67,290.42,187.53z"/>
		<path class="st1" d="M291.28,191.36c-6.88-2.39-14.2,0.7-16.35,6.89c-2.15,6.19,1.7,13.14,8.58,15.53
			c6.88,2.39,14.2-0.7,16.35-6.89C302.01,200.69,298.16,193.74,291.28,191.36z M296.94,205.54c-1.67,4.82-7.38,7.23-12.74,5.37
			c-5.36-1.86-8.36-7.28-6.69-12.1c1.67-4.82,7.38-7.23,12.74-5.37C295.61,195.29,298.61,200.71,296.94,205.54z"/>
	</g>
	<g>
		<path class="st1" d="M192.1,42.66l4.79,0l0,0.13c0,2.29,0.65,4.2,1.97,5.68c1.31,1.51,2.94,2.26,4.88,2.26
			c1.85,0,3.38-0.57,4.61-1.73c1.23-1.15,1.85-2.61,1.85-4.37c0-1.75-0.5-3.16-1.47-4.21c-0.97-1.08-2.72-2.07-5.27-3.01
			c-4.03-1.45-6.67-2.91-7.91-4.41c-1.24-1.51-1.85-3.53-1.85-6.06c0-2.86,1.03-5.29,3.1-7.27c2.06-2,4.58-3,7.51-3
			c3.12,0,5.61,0.88,7.45,2.67c1.83,1.77,2.81,4.25,2.96,7.43l-5.06,0c-0.11-1.75-0.66-3.08-1.65-4.06
			c-0.97-0.95-2.31-1.44-4.02-1.44c-1.52,0-2.79,0.52-3.8,1.54c-1.02,1.04-1.53,2.34-1.53,3.86c0,1.1,0.21,2,0.64,2.74
			c0.41,0.76,1.1,1.43,2.08,2.02c0.89,0.56,2.17,1.1,3.88,1.6c1.7,0.52,2.83,0.88,3.41,1.12c2.29,0.99,3.97,2.29,5.05,3.89
			c1.08,1.63,1.62,3.69,1.62,6.18c0,3.15-1.1,5.76-3.3,7.82c-2.2,2.07-4.98,3.09-8.36,3.09c-3.43,0-6.19-1.13-8.28-3.38
			C193.3,49.53,192.21,46.48,192.1,42.66z"/>
		<path class="st1" d="M319.01,55.14l-4.79,0l-0.01-36.62l4.45,0l0,4.19c1.15-1.62,2.4-2.78,3.75-3.55
			c1.36-0.73,2.94-1.13,4.75-1.18l0.03,5.06c-2.93,0.27-5.02,1.14-6.29,2.65c-1.26,1.49-1.9,3.94-1.9,7.32L319.01,55.14z"/>
		<path class="st1" d="M303.75,17.23l0,6.43c-3.55-4.38-8.96-7.18-15.03-7.18c-10.68,0-19.33,8.65-19.33,19.34
			c0,10.68,8.65,19.33,19.34,19.33c6.06,0,11.48-2.8,15.02-7.2l0,7.19l4.3,0l-0.01-37.91L303.75,17.23z M288.73,50.77
			c-8.26,0-14.96-6.69-14.97-14.96c0-8.26,6.7-14.96,14.96-14.96c8.24,0,14.95,6.69,14.95,14.96
			C303.68,44.08,296.97,50.77,288.73,50.77z"/>
		<path class="st1" d="M183.8,17.25l0,6.43c-3.55-4.38-8.96-7.18-15.03-7.18c-10.66,0-19.33,8.65-19.33,19.34
			c0,10.68,8.67,19.33,19.33,19.33c6.07,0,11.49-2.8,15.03-7.2l0,7.19l4.3,0l-0.01-37.91L183.8,17.25z M168.77,50.79
			c-8.25,0-14.96-6.69-14.96-14.96c0-8.26,6.7-14.96,14.96-14.96c8.26,0,14.96,6.69,14.96,14.96
			C183.73,44.1,177.04,50.79,168.77,50.79z"/>
		<path class="st1" d="M126.72,16.51c-6.07,0-11.48,2.81-15.03,7.19l0-18.26l-4.3,0l0.01,49.74l4.3,0l0-7.19
			c3.55,4.39,8.96,7.19,15.03,7.19c10.68,0,19.33-8.65,19.33-19.34C146.05,25.16,137.4,16.51,126.72,16.51z M126.73,50.8
			c-8.26,0-14.96-6.69-14.96-14.96c0-8.26,6.7-14.96,14.96-14.96c8.26,0,14.96,6.69,14.97,14.96
			C141.69,44.1,134.99,50.8,126.73,50.8z"/>
		<path class="st1" d="M368.05,37.25c0.04-0.47,0.07-0.95,0.07-1.45c0-10.68-8.66-19.33-19.33-19.33
			c-10.68,0-19.33,8.65-19.33,19.34c0,10.68,8.66,19.33,19.33,19.33c8.38,0,15.5-5.35,18.18-12.83l-4.78,0
			c-2.43,5-7.49,8.45-13.4,8.46c-7.78,0-14.09-5.96-14.83-13.55L368.05,37.25z M348.79,20.85c7.28,0,13.32,5.19,14.66,12.07
			l-29.33,0C335.47,26.04,341.52,20.85,348.79,20.85z"/>
		<rect x="220.9" y="18.53" class="st1" width="4.69" height="36.63"/>
		<rect x="220.9" y="5.61" class="st1" width="4.69" height="4.98"/>
		<path class="st1" d="M248.64,25.49c4.65,0,8.53,3.1,9.81,7.34l1.74-1.75c-1.85-4.55-6.31-7.76-11.54-7.76
			c-6.88,0-12.45,5.57-12.44,12.44c0,6.88,5.57,12.46,12.45,12.45c5.23,0,9.68-3.23,11.54-7.79l-1.74-1.74
			c-1.28,4.23-5.16,7.34-9.81,7.34c-5.67,0-10.27-4.59-10.27-10.26C238.38,30.08,242.97,25.49,248.64,25.49z"/>
		<path class="st1" d="M248.7,51.31c-8.59,0-15.55-6.96-15.55-15.54c0-8.59,6.96-15.54,15.55-15.55c6.27,0,11.65,3.7,14.11,9.05
			l2.87-2.87c-3.31-5.98-9.66-10.03-16.99-10.03c-10.7,0-19.38,8.68-19.38,19.4c0,10.7,8.68,19.39,19.39,19.39
			c7.32,0,13.68-4.06,16.99-10.04l-2.87-2.86C260.35,47.58,254.97,51.31,248.7,51.31z"/>
	</g>
	<g>
		<path class="st1" d="M372.47,14.41v3.5h-1.09V9.49h2.57c1.15,0,2,0.2,2.55,0.59c0.55,0.4,0.82,0.99,0.82,1.78
			c0,1.11-0.63,1.87-1.89,2.26l2.55,3.78h-1.29l-2.27-3.5H372.47z M372.47,13.56h1.49c0.77,0,1.33-0.14,1.69-0.41
			c0.36-0.28,0.54-0.69,0.54-1.24c0-0.56-0.18-0.96-0.55-1.2c-0.37-0.25-0.95-0.37-1.76-0.37h-1.42V13.56z"/>
	</g>
	<path class="st0" d="M374.68,22.39c-4.79,0-8.7-3.9-8.7-8.69s3.9-8.69,8.7-8.69c4.79,0,8.69,3.9,8.69,8.69
		S379.47,22.39,374.68,22.39z M374.68,6.38c-4.04,0-7.32,3.28-7.32,7.32c0,4.04,3.29,7.32,7.32,7.32c4.04,0,7.32-3.28,7.32-7.32
		C382,9.66,378.72,6.38,374.68,6.38z"/>
</g>
</svg>
